<?xml version="1.0" standalone="no"?>
<!DOCTYPE svg PUBLIC "-//W3C//DTD SVG 20010904//EN"
 "http://www.w3.org/TR/2001/REC-SVG-20010904/DTD/svg10.dtd">
<svg version="1.0" xmlns="http://www.w3.org/2000/svg"
 width="995.000000pt" height="841.000000pt" viewBox="0 0 995.000000 841.000000"
 preserveAspectRatio="xMidYMid meet">

<g transform="translate(0.000000,841.000000) scale(0.100000,-0.100000)"
fill="#000000" stroke="none">
<path d="M3605 8376 c416 -143 727 -365 980 -702 164 -217 282 -470 355 -758
47 -188 68 -331 82 -560 23 -400 -42 -750 -201 -1081 -75 -154 -160 -273 -291
-405 -180 -181 -359 -314 -617 -459 -75 -42 -138 -81 -140 -86 -1 -6 34 -21
79 -35 368 -110 698 -336 907 -620 118 -160 254 -468 317 -713 126 -496 103
-1050 -67 -1560 -111 -336 -281 -608 -545 -873 -218 -217 -427 -365 -683 -481
l-96 -43 2195 3 2195 2 100 23 c407 93 692 234 980 483 394 341 629 732 740
1232 51 231 57 311 52 676 -4 294 -7 349 -26 436 -48 229 -119 434 -217 629
-185 368 -518 643 -959 792 -63 21 -115 42 -115 46 0 3 53 34 117 68 333 174
649 440 810 682 106 159 206 414 253 641 60 294 50 705 -26 1047 -122 547
-438 1010 -876 1282 -243 151 -575 266 -914 317 -287 44 -269 43 -2419 47
l-2070 4 100 -34z m4005 -1130 c313 -61 506 -151 660 -305 232 -233 353 -568
337 -935 -11 -247 -71 -443 -195 -630 -58 -87 -208 -245 -288 -302 -131 -94
-325 -167 -529 -200 -119 -19 -752 -31 -1062 -19 l-193 7 0 1205 0 1204 593
-4 c501 -3 605 -7 677 -21z m-200 -3530 c307 -6 501 -46 704 -147 299 -148
522 -469 593 -853 26 -139 23 -410 -5 -543 -42 -194 -122 -372 -236 -524 -184
-245 -409 -373 -766 -435 -95 -17 -166 -19 -730 -19 l-625 0 -3 1255 c-1 690
0 1260 2 1266 4 10 498 10 1066 0z"/>
<path d="M1250 6119 l0 -1251 678 5 c578 3 692 6 780 21 305 50 509 152 693
344 110 114 171 202 235 336 159 336 150 816 -21 1156 -188 373 -480 561 -968
625 -96 12 -240 15 -758 15 l-639 0 0 -1251z"/>
<path d="M1250 2400 l0 -1311 753 4 c664 3 762 5 840 20 414 82 659 247 852
573 139 234 193 462 182 774 -10 285 -71 489 -211 705 -199 305 -451 455 -876
521 -87 14 -225 17 -822 21 l-718 5 0 -1312z"/>
</g>
</svg>
